<svg xmlns="http://www.w3.org/2000/svg" viewBox="0 0 226.28 338.66"><defs><style>.cls-1,.cls-2,.cls-3{fill:none;stroke-linecap:round;}.cls-1,.cls-2{stroke:#fff;stroke-linejoin:round;}.cls-1{stroke-width:10.42px;}.cls-2,.cls-3{stroke-width:11.28px;}.cls-3{stroke:#ffcf2d;stroke-miterlimit:10;}.cls-4{font-size:53.06px;fill:#fff;font-family:Coiny-Regular, Coiny;}.cls-5{letter-spacing:-0.02em;}.cls-6{letter-spacing:-0.01em;}.cls-7{letter-spacing:0em;}.cls-8{letter-spacing:0.01em;}</style></defs><g id="Capa_2" data-name="Capa 2"><g id="OBJECTS"><path class="cls-1" d="M184.23,126.84l-9,57.7c-.87,5.7-7.08,10.35-13.8,10.35H64.81c-6.72,0-12.92-4.65-13.79-10.35l-9-57.7"/><path class="cls-2" d="M208.59,131.57,203.51,113c-1.77-6.48-8.71-11.78-15.43-11.78H38.19c-6.71,0-13.66,5.3-15.43,11.78l-5.07,18.61"/><line class="cls-1" x1="71.21" y1="134.62" x2="74.93" y2="174.5"/><line class="cls-1" x1="99.16" y1="134.62" x2="100.4" y2="174.5"/><line class="cls-1" x1="127.11" y1="134.62" x2="125.87" y2="174.5"/><line class="cls-1" x1="155.07" y1="134.62" x2="151.35" y2="174.5"/><path class="cls-3" d="M62.71,119.35v-22a50.43,50.43,0,1,1,100.86,0v22"/><line class="cls-3" x1="113.14" y1="26.47" x2="113.14" y2="5.64"/><line class="cls-3" x1="83.82" y1="32.82" x2="76.2" y2="16.05"/><line class="cls-3" x1="59.75" y1="50.73" x2="47.66" y2="40.17"/><line class="cls-3" x1="45.26" y1="76.99" x2="37.94" y2="74.8"/><line class="cls-3" x1="142.46" y1="32.82" x2="150.08" y2="16.05"/><line class="cls-3" x1="166.52" y1="50.73" x2="178.62" y2="40.17"/><line class="cls-3" x1="181.02" y1="76.99" x2="188.33" y2="74.8"/><text class="cls-4" transform="translate(2.16 264.8)"><tspan class="cls-5">M</tspan><tspan x="49.29" y="0">orni</tspan><tspan class="cls-6" x="156.69" y="0">n</tspan><tspan x="188.85" y="0">g</tspan><tspan class="cls-6" x="43.43" y="49.13">M</tspan><tspan class="cls-7" x="93.26" y="49.13">a</tspan><tspan class="cls-8" x="126.37" y="49.13">r</tspan><tspan x="151.94" y="49.13">t</tspan></text><path class="cls-2" d="M192.14,298.26c9.5,8.55,19-8.55,28.5,0"/><path class="cls-2" d="M5.64,298.26c9.5,8.55,19-8.55,28.5,0"/></g></g></svg>