<svg xmlns="http://www.w3.org/2000/svg" viewBox="0 0 551.31 207.79"><defs><style>.cls-1,.cls-2,.cls-3{fill:none;stroke-linecap:round;}.cls-1,.cls-2{stroke:#fff;stroke-linejoin:round;}.cls-1{stroke-width:10.42px;}.cls-2,.cls-3{stroke-width:11.28px;}.cls-3{stroke:#ffcf2d;stroke-miterlimit:10;}.cls-4{font-size:73.86px;fill:#fff;font-family:Coiny-Regular, Coiny;}.cls-5{letter-spacing:-0.02em;}.cls-6{letter-spacing:0em;}.cls-7{letter-spacing:-0.01em;}.cls-8{letter-spacing:0.01em;}</style></defs><g id="Capa_2" data-name="Capa 2"><g id="OBJECTS"><path class="cls-1" d="M172.18,126.84l-9,57.7c-.87,5.7-7.08,10.35-13.8,10.35H52.76c-6.72,0-12.93-4.65-13.8-10.35l-9-57.7"/><path class="cls-2" d="M196.53,131.57,191.46,113c-1.77-6.48-8.71-11.78-15.43-11.78H26.14c-6.72,0-13.66,5.3-15.43,11.78L5.64,131.57"/><line class="cls-1" x1="59.16" y1="134.62" x2="62.88" y2="174.5"/><line class="cls-1" x1="87.11" y1="134.62" x2="88.35" y2="174.5"/><line class="cls-1" x1="115.06" y1="134.62" x2="113.82" y2="174.5"/><line class="cls-1" x1="143.02" y1="134.62" x2="139.3" y2="174.5"/><path class="cls-3" d="M50.65,119.35v-22a50.44,50.44,0,0,1,100.87,0v22"/><line class="cls-3" x1="101.09" y1="26.47" x2="101.09" y2="5.64"/><line class="cls-3" x1="71.77" y1="32.82" x2="64.15" y2="16.05"/><line class="cls-3" x1="47.7" y1="50.73" x2="35.61" y2="40.17"/><line class="cls-3" x1="33.2" y1="76.99" x2="25.89" y2="74.8"/><line class="cls-3" x1="130.41" y1="32.82" x2="138.03" y2="16.05"/><line class="cls-3" x1="154.47" y1="50.73" x2="166.56" y2="40.17"/><line class="cls-3" x1="168.97" y1="76.99" x2="176.28" y2="74.8"/><text class="cls-4" transform="translate(241.55 104.98)"><tspan class="cls-5">M</tspan><tspan class="cls-6" x="68.62" y="0">orni</tspan><tspan class="cls-7" x="218.11" y="0">n</tspan><tspan x="262.87" y="0">g</tspan><tspan class="cls-7" x="60.46" y="68.39">M</tspan><tspan x="129.81" y="68.39">a</tspan><tspan class="cls-8" x="175.9" y="68.39">r</tspan><tspan x="211.5" y="68.39">t</tspan></text><path class="cls-2" d="M506,151.56c13.22,11.9,26.45-11.9,39.67,0"/><path class="cls-2" d="M246.39,151.56c13.23,11.9,26.45-11.9,39.67,0"/></g></g></svg>